<svg width="128" height="128
" xmlns="http://www.w3.org/2000/svg"><path d="M8 4l114 0a4 4 0 0 1 4 4L124 120a4 4 0 0 1 -4 4L6 124a4 4 0 0 1 -4-4L4 8a4 4 0 0 1 4-4" fill="#cb7fff" stroke="#000000" stroke-width="2" stroke-linejoin="round"/><path d="M16 108 34 64a16 64 0 0 1 16 0l0 0L66 36l0 0a8 32 0 0 1 8 0L74 36l38 72a4 4 0 0 1 -4 4l-88 0a4 4 0 0 1 -4-4" fill="#565656" stroke="#000" stroke-width="2" stroke-linecap="round"/><path d="M58 50 62 58 70 48 76 58 82 51 74 36A8 32 0 0 0 66 36L58 50" fill="#fff" stroke="#000" stroke-width="2"/><path d="M32 69 34 64A16 64 0 0 1 50 64L50 64 44 74 41 66 36 75 32 69 32 69" fill="#fff" stroke="#000" stroke-width="2"/></svg>